<svg width="18" height="26" viewBox="0 0 18 26" fill="none" xmlns="http://www.w3.org/2000/svg">
<path d="M17.2663 9.39949C17.2663 4.72158 13.4729 0.928223 8.79504 0.928223C4.11713 0.928223 0.323782 4.72158 0.323782 9.39949C0.323782 9.39949 -0.0589642 12.3423 3.29212 17.1223C4.79755 19.2741 8.79504 25.6616 8.79504 25.6616C8.79504 25.6616 12.7925 19.2741 14.298 17.1223C17.649 12.3423 17.2663 9.39949 17.2663 9.39949ZM8.79504 15.7274C5.38442 15.7274 2.62022 12.9632 2.62022 9.55258C2.62022 6.14196 5.38442 3.37774 8.79504 3.37774C12.2057 3.37774 14.9699 6.14196 14.9699 9.55258C14.9699 12.9632 12.2057 15.7274 8.79504 15.7274Z" fill="#FF5722"/>
</svg>
