<svg width="36" height="33" viewBox="0 0 36 33" fill="none" xmlns="http://www.w3.org/2000/svg">
<path d="M28.1843 8.59901C31.9018 5.62499 35.9353 1.33125 35.2847 0.53198C34.6342 -0.267289 29.5598 2.70673 25.8422 5.69934C25.5077 5.97815 25.1731 6.23838 24.8571 6.49861C24.2065 6.38708 22.8496 6.16403 21.121 5.88522C21.1396 5.88522 21.1767 5.88522 21.1953 5.88522L22.1991 5.08595C22.3292 4.99301 22.3292 4.78855 22.1991 4.65843L21.4184 3.69187C21.3069 3.54317 21.121 3.506 20.9909 3.61753L19.9871 4.41679C19.9871 4.41679 19.9128 4.52832 19.8942 4.60267L18.7232 5.53205C17.2548 5.29041 15.6562 5.03018 14.0763 4.76996L15.0614 3.98928C15.1915 3.89634 15.1915 3.69188 15.0614 3.56176L14.2807 2.5952C14.1692 2.4465 13.9833 2.40933 13.8532 2.52086L12.8495 3.32012C12.8495 3.32012 12.7751 3.43165 12.7565 3.506L11.6227 4.39821C7.60777 3.74764 4.24341 3.22718 4.13189 3.26436C3.85307 3.3573 2.42182 4.58408 2.42182 4.58408C2.06865 4.86289 1.82702 5.12312 1.84561 5.1603C1.88278 5.19747 2.29171 4.91866 2.62628 4.65843L10.0056 7.35364C9.74535 7.59528 9.59664 7.81833 9.65241 7.89268C9.72676 7.98562 10.0613 7.81833 10.3959 7.53951L10.4331 7.50234L11.8829 8.04138C11.6413 8.26443 11.4926 8.48748 11.5483 8.56184C11.6227 8.65477 11.9573 8.48748 12.2919 8.20867L13.6116 8.67336L14.4108 9.24958C14.1134 9.5098 13.909 9.77003 13.9647 9.84438C14.0391 9.93732 14.3737 9.77003 14.7082 9.49122H14.7268L16.3068 10.6065C16.0094 10.8667 15.8049 11.1269 15.8793 11.2013C15.9536 11.2942 16.2882 11.1269 16.6228 10.8481L18.0726 11.889C15.6004 13.9151 14.6339 14.7329 12.7937 16.2199C10.935 17.7069 9.24348 19.2683 7.88659 20.6624C5.69325 20.3278 1.36233 19.6029 1.36233 19.6029L0.24707 20.3464L4.94974 23.9896C4.68951 24.3427 4.48504 24.6215 4.37352 24.8446C3.6486 25.5138 3.22109 25.9599 3.27685 26.0342C3.33261 26.1086 3.85307 25.8112 4.63375 25.2535C4.87539 25.1792 5.20996 25.0119 5.63748 24.8074L8.18399 30.2536L9.16913 29.3428C9.16913 29.3428 9.42936 24.6587 9.57806 22.5211C11.1766 21.5174 12.9982 20.3278 14.8941 19.0081C17.199 17.1679 18.2399 16.3872 20.3775 14.7143L21.0652 16.35C20.712 16.6475 20.489 16.9263 20.5634 17.0192C20.6191 17.0936 20.9165 16.9634 21.2511 16.7218L22.0132 18.5248H21.9946C21.6414 18.8222 21.4184 19.1196 21.4927 19.194C21.5485 19.2683 21.8645 19.1382 22.1805 18.8966L22.5708 19.7888L22.7567 21.1828C22.4035 21.4616 22.1805 21.7591 22.2548 21.852C22.3106 21.9263 22.5522 21.8334 22.831 21.6289L23.0355 23.1717H22.9983C22.6452 23.4691 22.4221 23.7665 22.4965 23.8595C22.5522 23.9338 22.8125 23.8223 23.0913 23.6178L24.095 31.406C23.779 31.6848 23.4073 32.0194 23.4258 32.0566C23.463 32.0938 23.7604 31.9079 24.1136 31.6291C24.1136 31.6291 25.6378 30.4952 25.7679 30.2536C25.8236 30.1607 26.0467 26.7591 26.3069 22.707L27.4408 21.8148C27.4408 21.8148 27.5895 21.8148 27.6452 21.7776L28.649 20.9784C28.7791 20.8854 28.7791 20.681 28.649 20.5509L27.8683 19.5843C27.7568 19.4356 27.5709 19.3984 27.4408 19.5099L26.4556 20.2906C26.5486 18.6921 26.6415 17.0936 26.7344 15.588L27.9055 14.6586C27.9055 14.6586 28.0542 14.6586 28.1099 14.6214L29.1137 13.8221C29.2438 13.7292 29.2438 13.5247 29.1137 13.3946L28.333 12.4281C28.2215 12.2794 28.0356 12.2422 27.9055 12.3537L26.9017 13.153C26.9017 13.153 26.9017 13.1902 26.8646 13.2273C26.9761 11.4987 27.0504 10.1418 27.0876 9.47263C27.4036 9.2124 27.7382 8.95217 28.0913 8.67336L28.1843 8.59901Z" fill="#FF5722"/>
</svg>
