<svg width="231" height="212" viewBox="0 0 231 212" fill="none" xmlns="http://www.w3.org/2000/svg">
<path d="M40.5592 201.948C40.4105 202.283 40.0759 202.469 39.7414 202.469C39.6112 202.469 39.4811 202.45 39.3696 202.394C37.7153 201.632 36.0982 200.833 34.5182 199.996C34.0721 199.755 33.9049 199.216 34.1465 198.77C34.3881 198.324 34.9272 198.156 35.3733 198.398C36.8975 199.216 38.496 200.015 40.1131 200.759C40.5592 200.963 40.7637 201.502 40.5592 201.948ZM37.3993 61.4257C37.7153 61.0353 37.641 60.4591 37.2506 60.1617C36.8603 59.8457 36.2841 59.9201 35.9867 60.3104C34.8528 61.7231 33.7561 63.1357 32.6967 64.5484C32.3993 64.9387 32.4736 65.5149 32.8639 65.8123C33.0312 65.9425 33.2171 65.9982 33.403 65.9982C33.6818 65.9982 33.942 65.8681 34.1279 65.6451C35.1874 64.251 36.2841 62.8383 37.3993 61.4442V61.4257ZM30.8007 195.74C29.2951 194.792 27.8267 193.788 26.4326 192.766C26.0237 192.468 25.4661 192.561 25.1687 192.952C24.8713 193.361 24.9642 193.918 25.3545 194.216C26.7858 195.275 28.2914 196.298 29.8342 197.264C29.9829 197.357 30.1501 197.394 30.3174 197.394C30.6148 197.394 30.9122 197.245 31.0795 196.967C31.3398 196.539 31.2282 195.982 30.8007 195.721V195.74ZM24.611 77.4296C24.2021 77.1508 23.6259 77.2809 23.3657 77.6898C22.3619 79.214 21.3954 80.7196 20.466 82.2252C20.2058 82.6527 20.3359 83.2104 20.7634 83.4706C20.9121 83.5635 21.0794 83.6007 21.2467 83.6007C21.5441 83.6007 21.8415 83.452 22.0088 83.1732C22.9381 81.6862 23.8861 80.1806 24.8713 78.675C25.1501 78.2661 25.0385 77.6898 24.611 77.4296ZM18.4957 185.851C18.1425 185.498 17.5663 185.48 17.2132 185.851C16.86 186.204 16.8414 186.781 17.2132 187.134C18.4585 188.416 19.7782 189.662 21.1537 190.851C21.321 191 21.5441 191.074 21.7485 191.074C22.0088 191.074 22.2504 190.963 22.4363 190.758C22.7709 190.387 22.7151 189.81 22.3433 189.476C21.005 188.323 19.7225 187.097 18.5143 185.851H18.4957ZM49.9646 43.9905C48.7378 45.3288 47.5482 46.6485 46.3586 47.9682C46.024 48.34 46.0612 48.9162 46.4329 49.2508C46.6002 49.3995 46.8232 49.4738 47.0277 49.4738C47.2694 49.4738 47.5296 49.3623 47.6969 49.1764C48.8679 47.8567 50.0575 46.537 51.2657 45.2173C51.6003 44.8455 51.5817 44.2693 51.2099 43.9347C50.8382 43.6001 50.262 43.6187 49.9274 43.9905H49.9646ZM60.2435 207.301C58.4963 206.93 56.7676 206.502 55.0762 206.056C54.5929 205.907 54.091 206.223 53.9609 206.688C53.8308 207.171 54.1282 207.673 54.6115 207.785C56.3215 208.249 58.0874 208.658 59.8532 209.049C59.9089 209.049 59.9833 209.067 60.0391 209.067C60.448 209.067 60.8383 208.77 60.9313 208.361C61.0428 207.878 60.7268 207.394 60.2435 207.283V207.301ZM44.1095 51.9274C43.7377 51.6114 43.1615 51.6486 42.8269 52.0203C41.6559 53.3958 40.5035 54.7713 39.3696 56.1282C39.0536 56.5185 39.1094 57.0762 39.4811 57.4107C39.6484 57.5408 39.8529 57.6152 40.0574 57.6152C40.3176 57.6152 40.5778 57.5037 40.7637 57.2806C41.8789 55.9237 43.0314 54.5668 44.2024 53.1913C44.5184 52.8196 44.4812 52.2434 44.1095 51.9088V51.9274ZM66.2101 28.6371C65.857 28.2839 65.2808 28.2653 64.9276 28.6185C63.6265 29.8825 62.3625 31.1278 61.0985 32.3732C60.7454 32.7264 60.7454 33.3026 61.0985 33.6557C61.2658 33.8416 61.5075 33.916 61.7305 33.916C61.9536 33.916 62.1952 33.823 62.3625 33.6557C63.6079 32.4104 64.8718 31.165 66.173 29.9196C66.5261 29.5665 66.5447 28.9902 66.1916 28.6371H66.2101ZM50.0017 204.569C48.2917 204.011 46.6188 203.417 45.0017 202.803C44.537 202.617 44.0165 202.859 43.8306 203.324C43.6448 203.788 43.8864 204.309 44.3511 204.495C45.9868 205.127 47.6969 205.74 49.4441 206.298C49.537 206.335 49.63 206.335 49.7229 206.335C50.1133 206.335 50.4664 206.093 50.5779 205.703C50.7267 205.22 50.4664 204.718 50.0017 204.569ZM54.946 41.3138C56.1542 40.0313 57.381 38.7488 58.645 37.4662C58.9981 37.113 58.9796 36.5368 58.645 36.1837C58.2918 35.8305 57.7156 35.8491 57.3624 36.1837C56.0985 37.4848 54.8531 38.7673 53.6449 40.0499C53.3103 40.4216 53.3103 40.9793 53.6821 41.3324C53.8494 41.4997 54.0724 41.5741 54.2955 41.5741C54.5371 41.5741 54.7788 41.4811 54.946 41.2953V41.3138ZM0.893216 143.657C1.39508 143.657 1.78542 143.267 1.80401 142.765C1.80401 141.018 1.89695 139.252 2.02706 137.486C2.06424 136.984 1.69248 136.557 1.19062 136.52C0.707339 136.501 0.261236 136.854 0.224061 137.356C0.07536 139.159 0.00100951 140.981 -0.0175781 142.765C-0.0175781 143.267 0.372762 143.676 0.874628 143.676L0.893216 143.657ZM2.51034 153.286C2.25011 151.576 2.06424 149.81 1.95271 148.044C1.91554 147.542 1.48802 147.17 0.986154 147.208C0.484288 147.245 0.112535 147.672 0.149711 148.174C0.261236 149.977 0.4657 151.799 0.725927 153.565C0.800278 154.011 1.17203 154.345 1.61813 154.345C1.65531 154.345 1.71107 154.345 1.74825 154.345C2.25011 154.271 2.58469 153.806 2.51034 153.323V153.286ZM1.59955 132.988C1.59955 132.988 1.69248 132.988 1.72966 132.988C2.17576 132.988 2.5661 132.653 2.62187 132.207C2.8635 130.497 3.16091 128.731 3.51407 126.984C3.60701 126.501 3.29102 126.018 2.80774 125.925C2.32446 125.832 1.84118 126.148 1.74825 126.631C1.39508 128.415 1.07909 130.2 0.837453 131.947C0.763102 132.449 1.11627 132.895 1.59955 132.969V132.988ZM3.60701 122.486C3.60701 122.486 3.75571 122.523 3.83006 122.523C4.23899 122.523 4.59215 122.244 4.70368 121.854C5.1312 120.181 5.63306 118.452 6.1721 116.761C6.3208 116.278 6.06058 115.776 5.5773 115.627C5.09402 115.478 4.59215 115.739 4.44345 116.222C3.90441 117.951 3.40255 119.698 2.95644 121.408C2.82633 121.891 3.12373 122.393 3.60701 122.505V122.486ZM27.1204 74.6415C27.3992 74.6415 27.6966 74.5113 27.8639 74.2511C28.8676 72.8199 29.8899 71.37 30.9494 69.9016C31.2468 69.4927 31.1539 68.9351 30.745 68.6377C30.336 68.3403 29.7784 68.4332 29.481 68.8421C28.4029 70.3105 27.3806 71.7604 26.3769 73.2288C26.098 73.6377 26.191 74.1954 26.5999 74.4928C26.7486 74.6043 26.9345 74.66 27.1204 74.66V74.6415ZM11.8599 177.691C11.5811 177.282 11.0235 177.171 10.596 177.45C10.187 177.728 10.0755 178.286 10.3543 178.714C11.3581 180.201 12.4547 181.669 13.5886 183.063C13.7744 183.286 14.0347 183.398 14.2949 183.398C14.4994 183.398 14.7038 183.323 14.8711 183.193C15.2615 182.877 15.3172 182.301 15.0012 181.929C13.886 180.572 12.8265 179.141 11.8599 177.71V177.691ZM10.7261 102.337C10.8562 102.393 10.9677 102.411 11.0978 102.411C11.451 102.411 11.767 102.207 11.9157 101.891C12.6406 100.311 13.4027 98.7124 14.202 97.0953C14.425 96.6492 14.2391 96.1102 13.793 95.8871C13.3469 95.6641 12.8079 95.8499 12.5848 96.296C11.767 97.9318 10.9863 99.5489 10.2614 101.147C10.0569 101.594 10.2614 102.133 10.7075 102.337H10.7261ZM3.51407 158.472C3.40255 157.988 2.91927 157.672 2.43599 157.803C1.95271 157.914 1.65531 158.397 1.76683 158.881C2.17576 160.646 2.67763 162.412 3.23526 164.104C3.36537 164.475 3.71854 164.717 4.09029 164.717C4.18323 164.717 4.27616 164.717 4.3691 164.68C4.83379 164.531 5.09402 164.011 4.94532 163.546C4.40628 161.892 3.923 160.182 3.51407 158.472ZM9.31341 105.59C8.84872 105.404 8.32827 105.627 8.14239 106.073C7.45465 107.765 6.80408 109.438 6.19069 111.092C6.0234 111.556 6.26504 112.077 6.72973 112.244C6.82267 112.281 6.9342 112.3 7.04572 112.3C7.41747 112.3 7.77064 112.077 7.90075 111.705C8.49556 110.069 9.12754 108.415 9.81528 106.742C10.0012 106.278 9.7781 105.757 9.332 105.571L9.31341 105.59ZM6.80408 168.472C6.59962 168.007 6.07916 167.803 5.61447 168.007C5.14978 168.212 4.94532 168.732 5.14978 169.197C5.8747 170.851 6.67397 172.487 7.54759 174.085C7.71488 174.383 8.01228 174.55 8.34686 174.55C8.49556 174.55 8.64426 174.513 8.77437 174.438C9.22047 174.197 9.36917 173.658 9.12754 173.212C8.29109 171.669 7.51041 170.089 6.80408 168.49V168.472ZM18.9604 86.5004C18.5329 86.2401 17.9752 86.3888 17.715 86.8349C16.8042 88.4149 15.9306 89.9762 15.0756 91.519C14.8339 91.9651 15.0012 92.5042 15.4473 92.7458C15.5774 92.8202 15.7261 92.8573 15.8748 92.8573C16.1908 92.8573 16.5068 92.69 16.6741 92.3926C17.5106 90.8499 18.3842 89.3071 19.2764 87.7457C19.5366 87.3182 19.3879 86.7606 18.9418 86.519L18.9604 86.5004ZM193.164 179.755C191.602 180.628 190.041 181.465 188.48 182.301C188.033 182.543 187.866 183.082 188.108 183.528C188.275 183.825 188.591 184.011 188.907 184.011C189.056 184.011 189.204 183.974 189.335 183.9C190.896 183.063 192.476 182.208 194.056 181.334C194.483 181.093 194.651 180.535 194.409 180.108C194.167 179.68 193.61 179.513 193.182 179.755H193.164ZM174.13 189.401C172.494 190.145 170.877 190.87 169.26 191.576C168.795 191.781 168.591 192.301 168.795 192.766C168.944 193.1 169.279 193.305 169.632 193.305C169.743 193.305 169.873 193.286 169.985 193.231C171.621 192.524 173.256 191.781 174.892 191.037C175.338 190.833 175.543 190.294 175.338 189.848C175.134 189.401 174.595 189.197 174.149 189.401H174.13ZM183.74 184.755C182.141 185.572 180.543 186.353 178.963 187.115C178.517 187.338 178.331 187.877 178.535 188.323C178.684 188.639 179.018 188.825 179.353 188.825C179.483 188.825 179.613 188.788 179.743 188.732C181.342 187.952 182.94 187.171 184.558 186.353C185.004 186.13 185.171 185.591 184.948 185.145C184.725 184.699 184.186 184.513 183.74 184.755ZM144.297 200.907C142.587 201.446 140.877 201.948 139.185 202.431C138.702 202.562 138.423 203.063 138.572 203.547C138.683 203.937 139.055 204.197 139.445 204.197C139.52 204.197 139.613 204.197 139.687 204.16C141.397 203.677 143.107 203.156 144.836 202.617C145.319 202.469 145.579 201.967 145.431 201.483C145.282 201 144.78 200.74 144.297 200.889V200.907ZM164.353 193.658C162.699 194.346 161.044 194.996 159.39 195.628C158.925 195.814 158.684 196.335 158.869 196.799C159 197.153 159.353 197.376 159.706 197.376C159.817 197.376 159.929 197.357 160.04 197.32C161.695 196.688 163.368 196.019 165.022 195.331C165.487 195.145 165.71 194.606 165.505 194.16C165.319 193.695 164.78 193.472 164.334 193.677L164.353 193.658ZM154.408 197.506C152.717 198.119 151.044 198.695 149.371 199.272C148.907 199.439 148.646 199.941 148.795 200.424C148.925 200.796 149.278 201.037 149.65 201.037C149.743 201.037 149.836 201.037 149.947 200.982C151.639 200.405 153.33 199.829 155.022 199.216C155.487 199.048 155.728 198.528 155.561 198.063C155.394 197.599 154.873 197.357 154.408 197.524V197.506ZM202.402 174.401C200.859 175.331 199.335 176.223 197.811 177.115C197.383 177.357 197.234 177.914 197.476 178.342C197.643 178.639 197.941 178.788 198.257 178.788C198.405 178.788 198.573 178.751 198.703 178.658C200.246 177.766 201.788 176.855 203.331 175.925C203.759 175.665 203.889 175.108 203.647 174.68C203.387 174.253 202.829 174.122 202.402 174.364V174.401ZM220.283 162.747C218.815 163.769 217.346 164.773 215.878 165.777C215.469 166.055 215.357 166.613 215.636 167.041C215.803 167.301 216.101 167.431 216.38 167.431C216.547 167.431 216.733 167.375 216.881 167.282C218.35 166.278 219.837 165.275 221.305 164.234C221.714 163.955 221.807 163.379 221.528 162.97C221.25 162.561 220.673 162.468 220.264 162.747H220.283ZM230.19 156.669C229.893 156.278 229.317 156.185 228.926 156.483C227.495 157.561 226.064 158.602 224.633 159.643C224.224 159.94 224.131 160.498 224.428 160.907C224.614 161.148 224.874 161.278 225.153 161.278C225.339 161.278 225.525 161.223 225.692 161.111C227.123 160.07 228.573 159.011 230.004 157.933C230.395 157.635 230.488 157.059 230.19 156.669ZM211.435 168.732C209.93 169.717 208.443 170.665 206.937 171.613C206.51 171.873 206.379 172.431 206.658 172.858C206.826 173.137 207.123 173.286 207.42 173.286C207.588 173.286 207.755 173.249 207.904 173.156C209.409 172.208 210.915 171.241 212.42 170.256C212.848 169.977 212.959 169.42 212.681 169.011C212.402 168.602 211.844 168.472 211.435 168.751V168.732ZM81.3405 209.959C79.5561 209.885 77.7902 209.774 76.0244 209.625C75.504 209.55 75.095 209.959 75.0579 210.443C75.0207 210.945 75.3924 211.372 75.8757 211.409C77.6415 211.558 79.4445 211.669 81.2475 211.744H81.2847C81.768 211.744 82.1583 211.372 82.1955 210.889C82.2141 210.387 81.8238 209.959 81.3405 209.941V209.959ZM90.0023 8.45092C90.3926 8.13493 90.4298 7.55871 90.1138 7.16837C89.7978 6.79662 89.2216 6.74085 88.8313 7.05684C87.4558 8.22787 86.0989 9.3803 84.7606 10.5327C84.3888 10.8673 84.3331 11.4249 84.6677 11.8153C84.8535 12.0197 85.0952 12.1313 85.3554 12.1313C85.5599 12.1313 85.7829 12.0569 85.9502 11.9082C87.2885 10.7558 88.6454 9.60335 90.0209 8.43233L90.0023 8.45092ZM80.7085 14.0644C79.3516 15.254 78.0133 16.4436 76.7122 17.6332C76.3404 17.9678 76.3032 18.544 76.6378 18.9158C76.8237 19.1202 77.0653 19.2132 77.307 19.2132C77.53 19.2132 77.7345 19.1388 77.9203 18.9901C79.2215 17.8005 80.5598 16.6295 81.9167 15.4399C82.2884 15.1053 82.3256 14.5477 81.991 14.1573C81.6565 13.7856 81.0802 13.7484 80.7085 14.083V14.0644ZM134.036 203.825C132.308 204.272 130.579 204.699 128.869 205.108C128.386 205.22 128.088 205.703 128.2 206.186C128.293 206.595 128.665 206.892 129.074 206.892C129.148 206.892 129.204 206.892 129.278 206.874C131.007 206.465 132.754 206.037 134.501 205.591C134.984 205.461 135.282 204.978 135.152 204.495C135.022 204.011 134.52 203.714 134.055 203.844L134.036 203.825ZM91.9726 210.034C90.5971 210.071 89.2402 210.09 87.9019 210.09H86.6565C86.1918 210.015 85.7457 210.48 85.7457 210.982C85.7457 211.484 86.1361 211.893 86.6379 211.893H87.9019C89.2588 211.893 90.6343 211.893 92.0284 211.837C92.5302 211.837 92.9206 211.409 92.902 210.907C92.902 210.406 92.493 210.034 91.9726 210.034ZM70.7455 209.067C68.9611 208.844 67.2139 208.584 65.4852 208.305C65.0019 208.231 64.5187 208.547 64.4443 209.049C64.3514 209.55 64.686 210.015 65.1878 210.09C66.9351 210.387 68.7195 210.647 70.5225 210.87C70.5596 210.87 70.5968 210.87 70.634 210.87C71.0801 210.87 71.4704 210.536 71.5262 210.071C71.582 209.569 71.2288 209.123 70.7455 209.067ZM72.753 21.2392C71.4333 22.466 70.1135 23.6928 68.831 24.901C68.4778 25.2541 68.4592 25.8118 68.7938 26.1835C68.9797 26.3694 69.2028 26.4623 69.4444 26.4623C69.6674 26.4623 69.8905 26.388 70.0578 26.2207C71.3403 25.0125 72.6415 23.7857 73.9612 22.5775C74.3329 22.2429 74.3515 21.6667 74.0169 21.295C73.6824 20.9232 73.1062 20.9046 72.7344 21.2392H72.753ZM113.181 208.119C111.415 208.379 109.649 208.621 107.902 208.844C107.4 208.9 107.047 209.346 107.122 209.848C107.177 210.313 107.568 210.647 108.014 210.647C108.051 210.647 108.088 210.647 108.125 210.647C109.891 210.443 111.657 210.201 113.46 209.922C113.962 209.848 114.296 209.383 114.222 208.9C114.148 208.398 113.702 208.063 113.2 208.138L113.181 208.119ZM123.665 206.242C121.917 206.595 120.17 206.948 118.423 207.246C117.94 207.339 117.605 207.803 117.698 208.286C117.772 208.733 118.163 209.03 118.59 209.03C118.646 209.03 118.702 209.03 118.757 209.03C120.505 208.714 122.27 208.379 124.036 208.008C124.52 207.915 124.836 207.431 124.743 206.93C124.65 206.446 124.166 206.13 123.683 206.223L123.665 206.242ZM98.3667 0.346717C98.0508 -0.0436236 97.4745 -0.099393 97.1028 0.216597C95.7087 1.35044 94.3146 2.48429 92.9577 3.61814C92.5674 3.93413 92.5116 4.51034 92.8462 4.90068C93.0321 5.12373 93.2923 5.23526 93.5526 5.23526C93.757 5.23526 93.9615 5.16091 94.1288 5.03079C95.4857 3.89695 96.8611 2.78169 98.2552 1.64784C98.6456 1.33186 98.7013 0.755638 98.3853 0.383886L98.3667 0.346717ZM102.586 209.402C100.802 209.569 99.0359 209.699 97.2701 209.792C96.7682 209.829 96.3965 210.257 96.415 210.74C96.4522 211.223 96.8426 211.595 97.3072 211.595H97.363C99.1288 211.484 100.932 211.353 102.735 211.186C103.237 211.149 103.59 210.703 103.553 210.201C103.516 209.699 103.069 209.365 102.568 209.383L102.586 209.402Z" fill="#FF5722"/>
</svg>
