<svg width="40" height="33" viewBox="0 0 40 33" fill="none" xmlns="http://www.w3.org/2000/svg">
<path d="M9.527 22.8354C5.30761 25.0473 0.530598 28.4675 0.995289 29.3968C1.47857 30.3076 7.01766 28.3559 11.2556 26.144C11.646 25.9395 12.0178 25.7537 12.3895 25.5492C13.0029 25.7723 14.304 26.2555 15.9398 26.8689C15.9212 26.8689 15.884 26.8689 15.8654 26.8689L14.7316 27.4637C14.6015 27.5381 14.5457 27.724 14.6386 27.8912L15.2148 28.9879C15.3078 29.1552 15.475 29.2296 15.6237 29.1552L16.7576 28.5604C16.7576 28.5604 16.8506 28.4675 16.8691 28.3931L18.1888 27.7054C19.5829 28.2258 21.1071 28.7834 22.5941 29.3411L21.4788 29.9173C21.3487 29.9916 21.293 30.1775 21.3859 30.3448L21.9621 31.4415C22.0551 31.6088 22.2224 31.6831 22.3711 31.6088L23.5049 31.014C23.5049 31.014 23.5979 30.921 23.6165 30.8467L24.899 30.1775C28.7094 31.5716 31.9065 32.7426 32.0367 32.724C32.3155 32.6869 33.9697 31.7575 33.9697 31.7575C34.3601 31.553 34.6575 31.3485 34.6389 31.2928C34.6203 31.2556 34.1556 31.4415 33.7839 31.6459L27.0737 27.5938C27.3711 27.408 27.5756 27.2221 27.5198 27.1477C27.4641 27.0548 27.1109 27.1477 26.7206 27.3336H26.6834L25.3636 26.5529C25.6425 26.3856 25.8284 26.1998 25.7912 26.1068C25.7354 26.0139 25.3823 26.1068 24.9919 26.2927L23.7837 25.5678L23.1146 24.8615C23.4677 24.657 23.7094 24.4525 23.6536 24.3596C23.5979 24.2667 23.2447 24.3596 22.8544 24.5455H22.8358L21.4974 23.1328C21.8506 22.9469 22.0923 22.7239 22.0365 22.6309C21.9807 22.538 21.6276 22.6309 21.2372 22.8168L20.0105 21.5157C22.8358 20.0101 23.9324 19.3781 26.0328 18.2814C28.1518 17.1848 30.1035 15.9766 31.7206 14.8613C33.8025 15.6234 37.9103 17.1662 37.9103 17.1662L39.1371 16.6457L35.2151 12.1661C35.5497 11.8687 35.7913 11.6271 35.9586 11.4412C36.7951 10.9207 37.3155 10.5676 37.2598 10.4746C37.2226 10.3817 36.6463 10.5862 35.7727 10.9765C35.5125 11.0137 35.1594 11.088 34.6947 11.2181L33.2448 5.38162L32.111 6.08795C32.111 6.08795 30.9586 10.6419 30.4009 12.7052C28.6351 13.3743 26.6276 14.2107 24.5086 15.1215C21.8878 16.4784 20.7168 17.0547 18.3004 18.2814L17.9286 16.5342C18.3189 16.3297 18.5978 16.0695 18.542 15.9766C18.4863 15.8836 18.1702 15.9766 17.8171 16.1253L17.4081 14.2107H17.4267C17.8171 13.9877 18.0959 13.7461 18.0402 13.6531C17.9844 13.5602 17.6684 13.6531 17.3152 13.8204L17.1108 12.8724L17.2037 11.4598C17.594 11.2553 17.8728 10.9951 17.8171 10.9022C17.7799 10.8278 17.5197 10.865 17.2037 10.9951L17.2966 9.45232H17.3338C17.7242 9.22927 18.003 8.98762 17.9472 8.87609C17.91 8.80174 17.6312 8.83893 17.3152 8.98763L17.8171 1.16224C18.1888 0.957775 18.6164 0.69754 18.5978 0.660365C18.5792 0.623189 18.2446 0.734722 17.8357 0.957774C17.8357 0.957774 16.1256 1.77562 15.9398 1.99868C15.8654 2.09161 14.9918 5.38163 13.9509 9.30362L12.6683 9.97277C12.6683 9.97277 12.5382 9.95418 12.4639 9.97277L11.33 10.5676C11.1999 10.6419 11.1442 10.8278 11.2371 10.9951L11.8133 12.0918C11.9062 12.259 12.0735 12.3334 12.2222 12.259L13.3375 11.6828C12.9286 13.2256 12.5196 14.787 12.1479 16.2368L10.8282 16.9245C10.8282 16.9245 10.698 16.906 10.6237 16.9245L9.48985 17.5193C9.35974 17.5937 9.30394 17.7796 9.39688 17.9469L9.97309 19.0435C10.066 19.2108 10.2333 19.2852 10.382 19.2108L11.5159 18.616C11.5159 18.616 11.5345 18.5788 11.553 18.5602C11.1255 20.2331 10.7724 21.5529 10.6051 22.2034C10.2334 22.3893 9.86158 22.5938 9.47124 22.7982L9.527 22.8354Z" fill="#FF5722"/>
</svg>
