<svg width="126" height="172" viewBox="0 0 126 172" fill="none" xmlns="http://www.w3.org/2000/svg">
<g filter="url(#filter0_ddd_1_30975)">
<rect x="31" width="64" height="64" rx="32" fill="#F85E9F"/>
<path d="M75.5809 19.4427C74.9139 18.7582 73.9269 18.5032 73.0065 18.7716L51.5443 25.0128C50.5733 25.2826 49.885 26.057 49.6996 27.0408C49.5102 28.0421 50.1718 29.3131 51.0361 29.8446L57.7469 33.9691C58.4351 34.3919 59.3235 34.2859 59.8931 33.7114L67.5775 25.9791C67.9643 25.5765 68.6046 25.5765 68.9915 25.9791C69.3783 26.3684 69.3783 26.9992 68.9915 27.4019L61.2937 35.1355C60.7227 35.7086 60.6161 36.6011 61.0362 37.2937L65.1366 44.0718C65.6167 44.877 66.4438 45.3334 67.3507 45.3334C67.4575 45.3334 67.5775 45.3334 67.6843 45.3199C68.7247 45.1858 69.5517 44.4745 69.8585 43.4678L76.2211 22.0331C76.5013 21.1205 76.2478 20.1272 75.5809 19.4427Z" fill="white"/>
</g>
<defs>
<filter id="filter0_ddd_1_30975" x="0" y="0" width="126" height="172" filterUnits="userSpaceOnUse" color-interpolation-filters="sRGB">
<feFlood flood-opacity="0" result="BackgroundImageFix"/>
<feColorMatrix in="SourceAlpha" type="matrix" values="0 0 0 0 0 0 0 0 0 0 0 0 0 0 0 0 0 0 127 0" result="hardAlpha"/>
<feOffset dy="19"/>
<feGaussianBlur stdDeviation="9.5"/>
<feColorMatrix type="matrix" values="0 0 0 0 0 0 0 0 0 0 0 0 0 0 0 0 0 0 0.09 0"/>
<feBlend mode="normal" in2="BackgroundImageFix" result="effect1_dropShadow_1_30975"/>
<feColorMatrix in="SourceAlpha" type="matrix" values="0 0 0 0 0 0 0 0 0 0 0 0 0 0 0 0 0 0 127 0" result="hardAlpha"/>
<feOffset dy="43"/>
<feGaussianBlur stdDeviation="13"/>
<feColorMatrix type="matrix" values="0 0 0 0 0 0 0 0 0 0 0 0 0 0 0 0 0 0 0.05 0"/>
<feBlend mode="normal" in2="effect1_dropShadow_1_30975" result="effect2_dropShadow_1_30975"/>
<feColorMatrix in="SourceAlpha" type="matrix" values="0 0 0 0 0 0 0 0 0 0 0 0 0 0 0 0 0 0 127 0" result="hardAlpha"/>
<feOffset dy="77"/>
<feGaussianBlur stdDeviation="15.5"/>
<feColorMatrix type="matrix" values="0 0 0 0 0 0 0 0 0 0 0 0 0 0 0 0 0 0 0.01 0"/>
<feBlend mode="normal" in2="effect2_dropShadow_1_30975" result="effect3_dropShadow_1_30975"/>
<feBlend mode="normal" in="SourceGraphic" in2="effect3_dropShadow_1_30975" result="shape"/>
</filter>
</defs>
</svg>
